<svg xmlns="http://www.w3.org/2000/svg"><style>:root svg:not(:target){display:none}</style><svg aria-label="Traveler's blog logo" fill="none" id="logotype" viewBox="0 0 225 18"><path d="M0 .346h13.61V3.61H8.615v14.044H4.968V3.61H0V.346ZM30.26 17.654h-3.938l-3.726-6.008H19.82v6.008h-3.647V.346h7.4c1.709 0 3.162.56 4.36 1.681 1.198 1.121 1.797 2.473 1.797 4.055 0 1.072-.326 2.07-.978 2.992-.652.907-1.515 1.59-2.59 2.052l4.097 6.528ZM23.574 3.536H19.82v5.118h3.753c.687 0 1.277-.247 1.77-.742.493-.51.74-1.12.74-1.83a2.46 2.46 0 0 0-.74-1.805 2.413 2.413 0 0 0-1.77-.741ZM48.791 17.654h-3.963l-1.11-3.115h-7.373l-1.11 3.115h-3.938L37.772.346h4.519l6.5 17.308ZM40.044 4.277l-2.537 7.072h5.074l-2.537-7.072ZM59.149 17.654H54.63L48.42.346h3.964l4.519 13.302L61.395.346h3.99L59.15 17.654ZM71.344 10.508v3.882h7.796v3.264H67.697V.346h11.31V3.61h-7.663v3.684h7.003v3.214h-7.003ZM85.886.346V14.39h7.056v3.264H82.239V.346h3.647ZM99.189 10.508v3.882h7.796v3.264H95.542V.346h11.311V3.61h-7.664v3.684h7.003v3.214h-7.003ZM124.169 17.654h-3.937l-3.726-6.008h-2.775v6.008h-3.647V.346h7.399c1.709 0 3.163.56 4.361 1.681s1.797 2.473 1.797 4.055c0 1.072-.326 2.07-.978 2.992-.652.907-1.515 1.59-2.59 2.052l4.096 6.528Zm-6.686-14.118h-3.752v5.118h3.752c.687 0 1.278-.247 1.771-.742.493-.51.74-1.12.74-1.83 0-.708-.247-1.31-.74-1.805a2.414 2.414 0 0 0-1.771-.741ZM127.196.321h3.699l-1.982 6.874h-2.774l1.057-6.874ZM139.935 18c-1.814 0-3.347-.38-4.598-1.137-1.251-.759-2.141-1.805-2.669-3.14l3.118-1.707c.722 1.764 2.141 2.646 4.255 2.646.986 0 1.726-.165 2.22-.494.493-.33.74-.775.74-1.336 0-.61-.291-1.08-.872-1.409-.582-.346-1.621-.717-3.119-1.113-1.621-.461-2.898-.997-3.832-1.607-1.162-.807-1.744-1.994-1.744-3.56 0-1.583.59-2.827 1.771-3.734C136.385.47 137.821 0 139.512 0c1.48 0 2.793.338 3.938 1.014 1.145.676 2.035 1.632 2.669 2.868l-3.066 1.656c-.739-1.483-1.92-2.225-3.541-2.225-.74 0-1.33.165-1.77.495-.441.313-.661.725-.661 1.236 0 .544.238.989.714 1.335.528.346 1.462.709 2.801 1.088l1.268.396a17.7 17.7 0 0 1 1.189.42c.529.181.917.354 1.163.52.864.494 1.445 1.005 1.744 1.532.458.692.688 1.508.688 2.448 0 1.599-.626 2.868-1.877 3.808S141.908 18 139.935 18ZM167.868 8.679c1.621.873 2.432 2.192 2.432 3.956 0 1.467-.555 2.67-1.665 3.61-1.11.94-2.476 1.409-4.096 1.409h-7.849V.346h7.294c1.568 0 2.898.462 3.99 1.385s1.639 2.085 1.639 3.486c0 1.434-.582 2.588-1.745 3.462Zm-3.884-5.143h-3.647v3.807h3.647c.563 0 1.03-.18 1.4-.544.388-.362.582-.815.582-1.36 0-.543-.185-.997-.555-1.36-.37-.362-.846-.543-1.427-.543Zm-3.647 10.928h4.202c.616 0 1.127-.19 1.532-.568.406-.396.608-.89.608-1.484 0-.577-.202-1.055-.608-1.434-.405-.396-.916-.593-1.532-.593h-4.202v4.08ZM176.866.346V14.39h7.056v3.264h-10.703V.346h3.647ZM200.952 15.404c-1.868 1.73-4.14 2.596-6.818 2.596s-4.951-.865-6.818-2.596c-1.85-1.764-2.775-3.899-2.775-6.404 0-2.522.925-4.648 2.775-6.38C189.183.875 191.456 0 194.134 0s4.95.874 6.818 2.62c1.867 1.732 2.801 3.858 2.801 6.38s-.934 4.657-2.801 6.404Zm-11.073-2.324c1.128 1.055 2.546 1.582 4.255 1.582s3.127-.527 4.255-1.582c1.145-1.072 1.717-2.432 1.717-4.08 0-1.648-.572-3.008-1.717-4.08-1.146-1.071-2.564-1.607-4.255-1.607-1.691 0-3.11.536-4.255 1.607-1.145 1.072-1.718 2.432-1.718 4.08 0 1.648.573 3.008 1.718 4.08ZM215.724 8.357H225v1.335c0 2.473-.846 4.476-2.537 6.008-1.691 1.534-3.876 2.3-6.554 2.3-2.854 0-5.223-.865-7.109-2.596-1.867-1.747-2.801-3.874-2.801-6.38 0-2.521.925-4.656 2.775-6.403C210.641.874 212.949 0 215.698 0c1.709 0 3.277.363 4.704 1.088 1.427.725 2.546 1.706 3.356 2.942l-3.118 1.682c-.441-.71-1.11-1.286-2.009-1.731-.898-.445-1.885-.668-2.96-.668-1.779 0-3.232.544-4.36 1.632-1.128 1.055-1.691 2.415-1.691 4.08 0 1.632.572 2.983 1.717 4.055 1.146 1.055 2.678 1.582 4.599 1.582 1.391 0 2.554-.288 3.488-.865a4.326 4.326 0 0 0 1.903-2.423h-5.603V8.357Z" fill="#131313"></path></svg></svg>